<svg width="37" height="34" viewBox="0 0 37 34" fill="none" xmlns="http://www.w3.org/2000/svg">
<path d="M13.7129 21.3791L22.879 4.82386C23.0045 4.59691 23.1313 4.37086 23.2445 4.13626C23.3472 3.92326 23.4345 3.70816 23.4914 3.47581C23.6118 2.98696 23.5796 2.47741 23.3924 2.01076C23.2067 1.54651 22.8799 1.15906 22.4622 0.90751C22.048 0.656827 21.5607 0.555016 21.0807 0.61891C20.5997 0.68341 20.1605 0.90916 19.8143 1.26211C19.6502 1.42981 19.5149 1.61626 19.3895 1.81561C19.2515 2.03506 19.127 2.26246 19.001 2.48941L18.4214 3.53626L17.8417 2.48941C17.7161 2.26216 17.5916 2.03491 17.4536 1.81561C17.328 1.61626 17.1927 1.42981 17.0284 1.26211C16.6826 0.90916 16.2434 0.68356 15.7624 0.61861C15.2824 0.554878 14.7951 0.656791 14.3808 0.90751C13.9632 1.15906 13.6363 1.54651 13.4504 2.01076C13.2635 2.47726 13.2313 2.98696 13.3514 3.47581C13.4084 3.70831 13.4957 3.92341 13.5986 4.13626C13.7115 4.37086 13.8383 4.59676 13.9641 4.82386L15.8362 8.20531L8.5424 21.3791H3.54425C3.29285 21.3791 3.0416 21.378 2.79035 21.3929C2.56205 21.4064 2.33975 21.4355 2.11835 21.5C1.65215 21.6359 1.24505 21.9197 0.9509 22.322C0.6584 22.7217 0.5 23.2113 0.5 23.7138C0.5 24.2166 0.65855 24.7056 0.9509 25.1054C1.2449 25.5078 1.65215 25.7916 2.1182 25.9274C2.33975 25.9919 2.5622 26.0208 2.79035 26.0346C3.0416 26.0496 3.29285 26.0481 3.54425 26.0481H23.1903C23.216 25.9946 23.2789 25.854 23.3404 25.6436C23.9629 23.5209 22.417 21.3791 20.2883 21.3791H13.7129ZM5.1695 26.8127L3.9812 29.0639C3.8585 29.2968 3.7346 29.5289 3.6236 29.7696C3.5231 29.9883 3.4376 30.2091 3.38195 30.4476C3.2642 30.9495 3.29555 31.4727 3.4787 31.952C3.6605 32.4282 3.9806 32.8265 4.3892 33.0843C4.79825 33.3423 5.27285 33.4467 5.74115 33.3806C6.212 33.3146 6.6419 33.0827 6.9806 32.7203C7.1414 32.5481 7.2737 32.3567 7.3964 32.1522C7.5317 31.9268 7.6535 31.6934 7.77665 31.4604L9.5 28.1954C9.3656 27.9719 8.07905 25.9898 5.1695 26.8127ZM36.0487 22.3043C35.7594 21.9123 35.3485 21.6271 34.8801 21.4932C34.6587 21.4295 34.436 21.4008 34.2077 21.3875C33.956 21.3726 33.7049 21.3738 33.4532 21.3738H28.472L21.8883 9.64831C20.8901 10.6991 20.4436 11.8758 20.2724 12.9447C20.0241 14.4947 20.3274 16.0848 21.0914 17.4453L29.0025 31.5353C29.1285 31.7594 29.253 31.9838 29.3912 32.2005C29.5167 32.397 29.652 32.5811 29.8166 32.7465C30.1631 33.095 30.6023 33.3179 31.084 33.3813C31.5627 33.4449 32.0485 33.3447 32.4665 33.0965C32.8841 32.8485 33.2117 32.4659 33.398 32.0079C33.5849 31.5471 33.617 31.0442 33.4967 30.5618C33.4396 30.3324 33.3524 30.12 33.2492 29.9099C33.1362 29.6784 33.0095 29.4554 32.8835 29.2313L31.0595 25.982H33.4535C33.7051 25.982 33.9562 25.9833 34.2079 25.9685C34.4361 25.955 34.6589 25.9265 34.8803 25.8627C35.3487 25.7288 35.7595 25.4436 36.0488 25.0517C36.3425 24.6539 36.5006 24.1724 36.5 23.678C36.5005 23.1835 36.3423 22.702 36.0487 22.3043Z" fill="#F36223"/>
</svg>
