<svg width="60" height="60" viewBox="0 0 60 60" fill="none" xmlns="http://www.w3.org/2000/svg">
<path d="M1.875 29.875C1.875 33.552 2.59924 37.193 4.00637 40.5901C5.4135 43.9873 7.47597 47.0739 10.076 49.674C12.6761 52.274 15.7627 54.3365 19.1599 55.7436C22.557 57.1508 26.198 57.875 29.875 57.875C33.552 57.875 37.193 57.1508 40.5901 55.7436C43.9873 54.3365 47.0739 52.274 49.674 49.674C52.274 47.0739 54.3365 43.9873 55.7436 40.5901C57.1508 37.193 57.875 33.552 57.875 29.875C57.875 26.198 57.1508 22.557 55.7436 19.1599C54.3365 15.7627 52.274 12.6761 49.674 10.076C47.0739 7.47597 43.9873 5.41351 40.5901 4.00637C37.193 2.59924 33.552 1.875 29.875 1.875C26.198 1.875 22.557 2.59924 19.1599 4.00637C15.7627 5.41351 12.6761 7.47597 10.076 10.076C7.47597 12.6761 5.4135 15.7627 4.00637 19.1599C2.59924 22.557 1.875 26.198 1.875 29.875Z" fill="#E4FAED"/>
<path d="M30 11.625H29.625C22.875 12 17.25 17.625 17.25 24.375C17.25 27.75 18.375 30.75 20.625 33L21.375 33.75C22.875 35.625 23.625 36 23.625 38.25V39.375H36.375V38.25C36.375 36 37.125 35.25 38.625 33.75L39.75 32.625C41.625 30.375 42.75 27.375 42.75 24.375C42.75 17.25 37.125 11.625 30 11.625Z" fill="#F36223"/>
<path d="M26.25 45.75C26.25 46.5 27 46.875 27.375 46.875H32.625C33.375 46.875 33.75 46.5 33.75 45.75C33.75 45 33 44.625 32.625 44.625H27.375C26.625 44.625 26.25 45 26.25 45.75Z" fill="#F66B03"/>
<path d="M30 16.875C25.875 16.875 22.5 20.25 22.5 24.375C22.5 25.125 23.25 25.5 23.625 25.5C24 25.5 24.75 24.75 24.75 24.375C24.75 21.75 27 19.125 30 19.125C30.75 19.125 31.125 18.375 31.125 18C31.125 17.625 30.75 16.875 30 16.875Z" fill="white"/>
<path d="M23.625 42C23.625 42.75 24.375 43.125 24.75 43.125H34.875C35.625 43.125 36 42.75 36 42C36 41.25 35.25 40.875 34.875 40.875H24.75C24.375 40.875 23.625 41.25 23.625 42Z" fill="#F66B03"/>
</svg>
