<svg width="60" height="60" viewBox="0 0 60 60" fill="none" xmlns="http://www.w3.org/2000/svg">
<path d="M0 30C-5.87054e-08 33.9397 0.775973 37.8407 2.28361 41.4805C3.79125 45.1203 6.00104 48.4274 8.7868 51.2132C11.5726 53.999 14.8797 56.2087 18.5195 57.7164C22.1593 59.224 26.0603 60 30 60C33.9397 60 37.8407 59.224 41.4805 57.7164C45.1203 56.2087 48.4274 53.999 51.2132 51.2132C53.999 48.4274 56.2087 45.1203 57.7164 41.4805C59.224 37.8407 60 33.9397 60 30C60 26.0603 59.224 22.1593 57.7164 18.5195C56.2087 14.8797 53.999 11.5726 51.2132 8.7868C48.4274 6.00104 45.1203 3.79126 41.4805 2.28361C37.8407 0.775973 33.9397 0 30 0C26.0603 0 22.1593 0.775973 18.5195 2.28361C14.8797 3.79126 11.5726 6.00104 8.7868 8.7868C6.00104 11.5726 3.79125 14.8797 2.28361 18.5195C0.775973 22.1593 -5.87054e-08 26.0603 0 30Z" fill="#E4FAED"/>
<path fill-rule="evenodd" clip-rule="evenodd" d="M25 44C25 41.7909 27.2331 40 29.9875 40H30.0125C32.7669 40 35 41.7909 35 44C35 46.2091 32.7669 48 30.0125 48H29.9875C27.2331 48 25 46.2091 25 44Z" fill="#F36223"/>
<path fill-rule="evenodd" clip-rule="evenodd" d="M41.8293 30.5659C34.6396 24.695 25.3603 24.695 18.1708 30.5659C17.3105 31.2686 16.0746 31.1004 15.4104 30.1904C14.7461 29.2807 14.9051 27.9736 15.7654 27.2712C24.372 20.2429 35.6281 20.2429 44.2346 27.2712C45.095 27.9736 45.2538 29.2807 44.5897 30.1904C43.9253 31.1004 42.6897 31.2686 41.8293 30.5659Z" fill="#F36223"/>
<path fill-rule="evenodd" clip-rule="evenodd" d="M46.8814 23.6046C36.6312 15.8527 23.3687 15.8527 13.1185 23.6046C12.2725 24.2445 11.0571 24.0916 10.4037 23.263C9.75037 22.4345 9.90655 21.2443 10.7526 20.6044C22.3965 11.7985 37.6036 11.7985 49.2473 20.6044C50.0935 21.2443 50.2496 22.4345 49.5962 23.263C48.9428 24.0916 47.7273 24.2445 46.8814 23.6046Z" fill="#F36223"/>
<path fill-rule="evenodd" clip-rule="evenodd" d="M37.9722 37.6045C33.1286 33.8325 26.8715 33.8325 22.0277 37.6045C21.2079 38.2431 20.0284 38.0923 19.3934 37.2682C18.7583 36.4439 18.9081 35.2581 19.728 34.6198C25.9256 29.7934 34.0745 29.7934 40.2721 34.6198C41.0918 35.2581 41.2418 36.4439 40.6066 37.2682C39.9717 38.0923 38.7922 38.2431 37.9722 37.6045Z" fill="#F36223"/>
</svg>
