<svg width="146" height="124" viewBox="0 0 146 124" fill="none" xmlns="http://www.w3.org/2000/svg">
<rect x="-4" width="150" height="150" rx="75" fill="#494545"/>
<path d="M101.754 109.375C97.95 115.058 93.9167 120.604 87.775 120.696C81.6333 120.833 79.6625 117.075 72.6958 117.075C65.6833 117.075 63.5292 120.604 57.7082 120.833C51.704 121.063 47.1665 114.783 43.3165 109.238C35.479 97.9167 29.4749 77.0625 37.5415 63.0375C41.529 56.0709 48.679 51.6709 56.4249 51.5333C62.2917 51.4417 67.8833 55.5208 71.5042 55.5208C75.0792 55.5208 81.8625 50.6167 88.9667 51.35C91.9458 51.4875 100.287 52.5417 105.65 60.425C105.237 60.7 95.7042 66.2917 95.7958 77.8875C95.9333 91.7292 107.942 96.3583 108.079 96.4042C107.942 96.725 106.154 103.004 101.754 109.375ZM75.5833 36.0417C78.9292 32.2375 84.475 29.35 89.0583 29.1667C89.6542 34.5292 87.5 39.9375 84.2917 43.7875C81.1292 47.6834 75.9042 50.7084 70.7708 50.2959C70.0833 45.025 72.65 39.525 75.5833 36.0417Z" fill="white"/>
</svg>
