<svg width="60" height="60" viewBox="0 0 60 60" fill="none" xmlns="http://www.w3.org/2000/svg">
<path d="M0 30C-5.87054e-08 33.9397 0.775973 37.8407 2.28361 41.4805C3.79125 45.1203 6.00104 48.4274 8.7868 51.2132C11.5726 53.999 14.8797 56.2087 18.5195 57.7164C22.1593 59.224 26.0603 60 30 60C33.9397 60 37.8407 59.224 41.4805 57.7164C45.1203 56.2087 48.4274 53.999 51.2132 51.2132C53.999 48.4274 56.2087 45.1203 57.7164 41.4805C59.224 37.8407 60 33.9397 60 30C60 26.0603 59.224 22.1593 57.7164 18.5195C56.2087 14.8797 53.999 11.5726 51.2132 8.7868C48.4274 6.00104 45.1203 3.79126 41.4805 2.28361C37.8407 0.775973 33.9397 0 30 0C26.0603 0 22.1593 0.775973 18.5195 2.28361C14.8797 3.79126 11.5726 6.00104 8.7868 8.7868C6.00104 11.5726 3.79125 14.8797 2.28361 18.5195C0.775973 22.1593 -5.87054e-08 26.0603 0 30Z" fill="#E4FAED"/>
<path d="M43.806 42.6202C44.056 42.6202 44.2926 42.5122 44.4501 42.3258C44.6076 42.1395 44.669 41.8951 44.6173 41.6605L44.0951 39.2904C44.3925 39.0145 44.5794 38.6293 44.5794 38.2009C44.5794 37.75 44.37 37.3501 44.045 37.0722V28.8417L41.9517 30.0841V37.0722C41.6266 37.3501 41.4172 37.75 41.4172 38.2009C41.4172 38.6293 41.6042 39.0146 41.9016 39.2904L41.3793 41.6605C41.3276 41.8951 41.3891 42.1395 41.5465 42.3258C41.704 42.5121 41.9406 42.6202 42.1907 42.6202H43.806ZM44.5155 24.039L30.8971 15.954C30.4983 15.7184 30.0487 15.6001 29.5991 15.6001C29.1494 15.6001 28.6995 15.7183 28.3031 15.954L14.6845 24.039C14.3209 24.2548 14.1 24.6359 14.1 25.0461C14.1 25.4564 14.3209 25.8377 14.6845 26.0538L28.303 34.1389C28.6995 34.3747 29.1494 34.4928 29.599 34.4928C30.0486 34.4928 30.4983 34.3746 30.897 34.1389L44.5155 26.0538C44.8791 25.8378 45.1 25.4564 45.1 25.0461C45.1 24.6359 44.8792 24.2546 44.5155 24.039ZM29.599 36.5003C28.7507 36.5003 27.9227 36.2743 27.201 35.8459L19.2573 31.1295V39.2508C19.2573 41.6544 23.8896 43.6001 29.599 43.6001C35.3104 43.6001 39.9424 41.6543 39.9424 39.2508V31.1295L31.9989 35.8459C31.2772 36.2743 30.4473 36.5003 29.599 36.5003Z" fill="#F36223"/>
</svg>
