<svg width="30" height="30" viewBox="0 0 30 30" fill="none" xmlns="http://www.w3.org/2000/svg">
<path d="M1.875 9.06395C1.875 4.74842 5.37342 1.25 9.68895 1.25H22.061C26.3766 1.25 29.875 4.74842 29.875 9.06395V21.436C29.875 25.7516 26.3766 29.25 22.061 29.25H9.68895C5.37342 29.25 1.875 25.7516 1.875 21.436V9.06395Z" fill="#E4FAED"/>
<g clip-path="url(#clip0_313_6926)">
<path fill-rule="evenodd" clip-rule="evenodd" d="M19.0702 17.6211L19.5763 17.118C20.2759 16.4223 21.3663 16.2794 22.2614 16.766L24.3842 17.92C25.7474 18.661 26.0479 20.4772 24.9824 21.5367L23.404 23.106C23.0027 23.5051 22.5047 23.7968 21.932 23.8501C20.6073 23.9737 17.882 23.907 14.6666 22.0248L19.0702 17.6211ZM12.5036 11.0917L12.8222 10.7749C13.6073 9.99426 13.6813 8.74101 12.9963 7.82608L11.5953 5.95453C10.7475 4.82213 9.1094 4.67254 8.13772 5.6387L6.39372 7.3728C5.91192 7.85186 5.58905 8.47287 5.62821 9.16179C5.70012 10.4272 6.13146 12.7388 8.01584 15.5794L12.5036 11.0917Z" fill="#F36223"/>
<path opacity="0.6" d="M14.5835 15.5523C11.3105 12.2978 12.4956 11.099 12.5031 11.0916L8.01538 15.5793C8.75559 16.6951 9.72001 17.8926 10.9749 19.1404C12.2413 20.3995 13.4866 21.3342 14.6661 22.0246L19.0697 17.621C19.0697 17.621 17.8669 18.817 14.5835 15.5523Z" fill="#F36223"/>
</g>
<defs>
<clipPath id="clip0_313_6926">
<rect width="20" height="20" fill="white" transform="translate(5.625 5)"/>
</clipPath>
</defs>
</svg>