<svg width="37" height="36" viewBox="0 0 37 36" fill="none" xmlns="http://www.w3.org/2000/svg">
<path d="M3.875 4.18291V31.8157C3.87519 31.8757 3.89307 31.9342 3.9264 31.9841C3.95974 32.0339 4.00704 32.0728 4.06238 32.0958C4.11772 32.1189 4.17864 32.1251 4.23749 32.1137C4.29634 32.1022 4.35051 32.0737 4.3932 32.0316L18.7812 18L4.3932 3.96705C4.35051 3.92496 4.29634 3.89641 4.23749 3.88498C4.17864 3.87355 4.11772 3.87975 4.06238 3.9028C4.00704 3.92586 3.95974 3.96473 3.9264 4.01456C3.89307 4.06439 3.87519 4.12296 3.875 4.18291Z" fill="#F36223"/>
<path d="M24.8145 12.2343L6.77373 2.29497L6.76247 2.28864C6.45169 2.11989 6.15638 2.54036 6.41091 2.78504L20.5529 16.3075L24.8145 12.2343Z" fill="#F36223"/>
<path d="M6.41187 33.2148C6.15594 33.4595 6.45125 33.88 6.76344 33.7112L6.77469 33.7049L24.8141 23.7655L20.5524 19.6909L6.41187 33.2148Z" fill="#F36223"/>
<path d="M32.097 16.2423L27.0591 13.4678L22.3222 18.0001L27.0591 22.5304L32.097 19.7579C33.4674 19.0007 33.4674 16.9996 32.097 16.2423Z" fill="#F36223"/>
</svg>
