<svg width="146" height="124" viewBox="0 0 146 124" fill="none" xmlns="http://www.w3.org/2000/svg">
<rect x="-4" width="150" height="150" rx="75" fill="#494545"/>
<path d="M84.9666 34.9325L80.7762 40.8416C87.3281 43.956 92.0547 49.7585 92.5944 56.5269H47.9069C48.4431 49.7585 53.0631 43.9594 59.615 40.8416L55.4247 34.9325C55.2081 34.5028 55.3181 34.0731 55.6413 33.8566C55.9644 33.64 56.3941 33.75 56.7172 34.0731L61.0141 40.3053C63.8088 39.2294 66.9231 38.5866 70.2541 38.5866C73.585 38.5866 76.5928 39.2328 79.4941 40.3053L83.7909 34.0731C84.0075 33.75 84.4372 33.6435 84.7569 33.8566C85.0766 34.0697 85.1866 34.5028 84.9734 34.9325H84.9666ZM60.7941 50.2947C62.1897 50.2947 63.2656 49.2188 63.2656 47.8231C63.2656 46.5341 62.1897 45.3516 60.7941 45.3516C59.505 45.3516 58.3225 46.5341 58.3225 47.8231C58.3225 49.2188 59.505 50.2947 60.7941 50.2947ZM79.9169 50.2947C81.3125 50.2947 82.3884 49.2188 82.3884 47.8231C82.3884 46.5341 81.3125 45.3516 79.9169 45.3516C78.6278 45.3516 77.4453 46.5341 77.4453 47.8231C77.4453 49.2188 78.6278 50.2947 79.9169 50.2947ZM34.9062 84.5597V64.6875C34.9062 61.8928 37.0547 59.5313 39.9559 59.5313C42.7506 59.5313 44.8991 61.8963 44.8991 64.6875V84.5597C44.8991 87.461 42.7506 89.716 39.9559 89.716C37.0547 89.716 34.9062 87.461 34.9062 84.5597ZM95.3856 84.5597V64.6875C95.3856 61.8928 97.6406 59.5313 100.435 59.5313C103.23 59.5313 105.485 61.8963 105.485 64.6875V84.5597C105.485 87.461 103.23 89.716 100.435 89.716C97.6406 89.716 95.3856 87.461 95.3856 84.5597ZM48.0134 96.0547V59.6378H92.7009V96.0547C92.7009 98.2031 90.8756 100.028 88.7272 100.028H84.3237V111.307C84.3237 114.102 82.0687 116.357 79.2741 116.357C76.4794 116.357 74.2244 114.102 74.2244 111.307V100.028H66.3834V111.307C66.3834 114.102 64.235 116.357 61.4403 116.357C58.5391 116.357 56.3906 114.102 56.3906 111.307V100.028H51.8772C49.8353 100.028 48.0134 98.2031 48.0134 96.0547Z" fill="white"/>
</svg>
