<svg width="110" height="104" viewBox="0 0 110 104" fill="none" xmlns="http://www.w3.org/2000/svg">
<path d="M85.7542 89.375C81.95 95.0583 77.9167 100.604 71.775 100.696C65.6333 100.833 63.6625 97.075 56.6958 97.075C49.6833 97.075 47.5292 100.604 41.7082 100.833C35.704 101.063 31.1665 94.7833 27.3165 89.2375C19.479 77.9167 13.4749 57.0625 21.5415 43.0375C25.529 36.0709 32.679 31.6709 40.4249 31.5333C46.2917 31.4417 51.8833 35.5208 55.5042 35.5208C59.0792 35.5208 65.8625 30.6167 72.9667 31.35C75.9458 31.4875 84.2875 32.5417 89.65 40.425C89.2375 40.7 79.7042 46.2917 79.7958 57.8875C79.9333 71.7292 91.9417 76.3583 92.0792 76.4042C91.9417 76.725 90.1542 83.0042 85.7542 89.375ZM59.5833 16.0417C62.9292 12.2375 68.475 9.35002 73.0583 9.16669C73.6542 14.5292 71.5 19.9375 68.2917 23.7875C65.1292 27.6834 59.9042 30.7084 54.7708 30.2959C54.0833 25.025 56.65 19.525 59.5833 16.0417Z" fill="white"/>
</svg>
