<svg width="38" height="38" viewBox="0 0 38 38" fill="none" xmlns="http://www.w3.org/2000/svg">
<circle opacity="0.1" cx="19" cy="19" r="19" fill="white"/>
<g clip-path="url(#clip0_313_7134)">
<path d="M29.1623 12.6559C28.3989 12.9936 27.5893 13.2154 26.7603 13.3139C27.634 12.7914 28.288 11.9689 28.6003 10.9999C27.7803 11.4879 26.8813 11.8299 25.9443 12.0149C25.3149 11.3415 24.4807 10.8949 23.5713 10.7445C22.6618 10.5941 21.7282 10.7484 20.9156 11.1834C20.1029 11.6183 19.4567 12.3096 19.0774 13.1497C18.6981 13.9898 18.607 14.9317 18.8183 15.8289C17.1554 15.7456 15.5286 15.3134 14.0436 14.5606C12.5585 13.8077 11.2484 12.751 10.1983 11.4589C9.82659 12.0974 9.63125 12.8232 9.6323 13.5619C9.6323 15.0119 10.3703 16.2929 11.4923 17.0429C10.8283 17.022 10.1789 16.8427 9.5983 16.5199V16.5719C9.5985 17.5376 9.93267 18.4735 10.5441 19.221C11.1556 19.9684 12.0068 20.4814 12.9533 20.6729C12.3369 20.84 11.6906 20.8646 11.0633 20.7449C11.3302 21.5762 11.8503 22.3031 12.5509 22.824C13.2515 23.3449 14.0974 23.6337 14.9703 23.6499C14.1028 24.3313 13.1095 24.8349 12.0472 25.1321C10.9849 25.4293 9.87442 25.5142 8.7793 25.3819C10.691 26.6114 12.9164 27.264 15.1893 27.2619C22.8823 27.2619 27.0893 20.8889 27.0893 15.3619C27.0893 15.1819 27.0843 14.9999 27.0763 14.8219C27.8952 14.2301 28.6019 13.4969 29.1633 12.6569L29.1623 12.6559Z" fill="white"/>
</g>
<defs>
<clipPath id="clip0_313_7134">
<rect width="24" height="24" fill="white" transform="translate(7 7)"/>
</clipPath>
</defs>
</svg>
