<svg width="38" height="38" viewBox="0 0 38 38" fill="none" xmlns="http://www.w3.org/2000/svg">
<circle opacity="0.1" cx="19" cy="19" r="19" fill="white"/>
<g clip-path="url(#clip0_313_7149)">
<path d="M28.543 13.498C29 15.28 29 19 29 19C29 19 29 22.72 28.543 24.502C28.289 25.487 27.546 26.262 26.605 26.524C24.896 27 19 27 19 27C19 27 13.107 27 11.395 26.524C10.45 26.258 9.708 25.484 9.457 24.502C9 22.72 9 19 9 19C9 19 9 15.28 9.457 13.498C9.711 12.513 10.454 11.738 11.395 11.476C13.107 11 19 11 19 11C19 11 24.896 11 26.605 11.476C27.55 11.742 28.292 12.516 28.543 13.498ZM17 22.5L23 19L17 15.5V22.5Z" fill="white"/>
</g>
<defs>
<clipPath id="clip0_313_7149">
<rect width="24" height="24" fill="white" transform="translate(7 7)"/>
</clipPath>
</defs>
</svg>
